<?xml version="1.0" encoding="iso-8859-1"?>
<!-- Generator: Adobe Illustrator 18.0.0, SVG Export Plug-In . SVG Version: 6.00 Build 0)  -->
<!DOCTYPE svg PUBLIC "-//W3C//DTD SVG 1.1//EN" "http://www.w3.org/Graphics/SVG/1.1/DTD/svg11.dtd">
<svg xmlns="http://www.w3.org/2000/svg" xmlns:xlink="http://www.w3.org/1999/xlink" version="1.1" id="Capa_1" x="0px" y="0px" viewBox="0 0 60.002 60.002" style="enable-background:new 0 0 60.002 60.002;" xml:space="preserve" width="512px" height="512px">
<path d="M57.952,5.052c-1.322-1.322-3.08-2.051-4.95-2.051s-3.627,0.729-4.95,2.051l-2.864,2.865L23.116,32.373c0,0,0,0,0,0  l-4.026,4.46c0,0,0,0.001,0,0.001l-5.62,6.226c-0.279-0.035-0.562-0.059-0.853-0.059h-0.415c-2.162,0-6.186,0-6.186,4.917  c0,4.942-5.166,7.065-5.384,7.153c-0.447,0.176-0.705,0.645-0.615,1.116S0.52,57.001,1,57.001h12.437  c1.807,0,3.196-0.481,4.13-1.431c1.391-1.415,1.467-3.467,1.446-5.221c0.059-0.034,0.121-0.059,0.174-0.106l6.992-6.317  c0.001-0.001,0.002-0.001,0.003-0.002l4.458-4.027c0,0,0.001-0.002,0.002-0.002l24.481-22.116l2.829-2.829  c1.322-1.322,2.05-3.079,2.05-4.949C60.002,8.132,59.274,6.374,57.952,5.052z M25.546,41.803l-4.335-4.335l2.684-2.974l4.623,4.624  L25.546,41.803z M16.141,54.168c-0.544,0.553-1.454,0.833-2.705,0.833H4.506c1.723-1.439,3.511-3.739,3.511-7.083  c0-2.629,1.34-2.917,4.186-2.917h0.415c0.342,0,0.669,0.043,0.987,0.111c0.007,0.002,0.014,0.006,0.021,0.008  c0.442,0.097,0.849,0.261,1.222,0.47c0.034,0.019,0.072,0.034,0.106,0.055c0.153,0.091,0.293,0.197,0.432,0.306  c0.054,0.042,0.11,0.083,0.162,0.128c0.133,0.115,0.258,0.239,0.374,0.369c0.039,0.043,0.076,0.087,0.112,0.132  c0.121,0.147,0.236,0.299,0.336,0.461c0.007,0.012,0.013,0.025,0.021,0.037c0.342,0.57,0.549,1.226,0.585,1.93  c0,0.009,0.005,0.017,0.006,0.025C16.984,49.098,17,49.158,17,49.224c0,0.229,0.004,0.471,0.008,0.719  C17.033,51.484,17.062,53.232,16.141,54.168z M18.847,47.855c-0.406-1.828-1.611-3.33-3.258-4.157l4.281-4.743l4.191,4.191  L18.847,47.855z M56.538,13.536l-2.792,2.794L30.005,37.776l-4.768-4.768L46.638,9.294l2.829-2.828  c0.944-0.944,2.2-1.465,3.536-1.465s2.591,0.521,3.536,1.465s1.464,2.2,1.464,3.535S57.482,12.592,56.538,13.536z" fill="#4772d9"/>
<g>
</g>
<g>
</g>
<g>
</g>
<g>
</g>
<g>
</g>
<g>
</g>
<g>
</g>
<g>
</g>
<g>
</g>
<g>
</g>
<g>
</g>
<g>
</g>
<g>
</g>
<g>
</g>
<g>
</g>
</svg>
