<?xml version="1.0" encoding="iso-8859-1"?>
<!-- Generator: Adobe Illustrator 19.0.0, SVG Export Plug-In . SVG Version: 6.00 Build 0)  -->
<svg xmlns="http://www.w3.org/2000/svg" xmlns:xlink="http://www.w3.org/1999/xlink" version="1.1" id="Capa_1" x="0px" y="0px" viewBox="0 0 490 490" style="enable-background:new 0 0 490 490;" xml:space="preserve" width="512px" height="512px">
<g>
	<path d="M437.534,199.686c0.326-4.16,0.481-7.807,0.481-11.362c0-103.817-98.249-188.27-219.008-188.27S0,84.507,0,188.324   c0,49.664,22.134,96.213,62.451,131.603v83.893c0.102,11.374,14.184,12.99,18.347,6.781l44.655-52.138   c7.583,3.016,15.834,5.765,24.941,8.311c27.391,55.977,92.091,93.256,162.82,93.256c25.84,0,50.701-4.714,74.028-14.03   l34.605,40.408c6.767,7.219,18.599,2.602,18.347-6.781v-65.953C472.356,385.117,490,347.681,490,307.76   C490,267.301,470.947,228.216,437.534,199.686z M160.445,347.905c-12.971-3.42-24.007-7.198-33.719-11.525   c-4.185-1.873-9.154-0.773-12.167,2.739l-31.257,36.5v-60.487c0-3.085-1.364-6.006-3.726-7.992   c-37.874-31.724-58.725-73.915-58.725-118.815c0-92.313,88.892-167.419,198.156-167.419c109.265,0,198.157,75.107,198.157,167.419   C417.164,300.139,284.85,380.769,160.445,347.905z M423.069,400.909c-2.362,1.985-3.726,4.907-3.726,7.992v42.527l-21.218-24.781   c-2.026-2.372-4.948-3.645-7.921-3.645c-1.435,0-2.881,0.295-4.245,0.906c-22.704,10.13-47.169,15.272-72.744,15.272   c-56.007,0-107.575-25.871-135.085-66.117c0.044,0.007,0.088,0.01,0.132,0.018c13.698,2.332,27.333,3.514,40.745,3.514   c106.409,0,195.069-64.025,214.816-151.843c0.009-0.012,0.019-0.027,0.028-0.039c22.887,23.417,35.298,52.352,35.298,83.047   C469.149,342.926,452.788,376.005,423.069,400.909z" fill="#4772d9"/>
	<rect x="131.928" y="136.91" width="165.576" height="20.851" fill="#4772d9"/>
	<rect x="131.928" y="214.511" width="133.201" height="20.851" fill="#4772d9"/>
</g>
<g>
</g>
<g>
</g>
<g>
</g>
<g>
</g>
<g>
</g>
<g>
</g>
<g>
</g>
<g>
</g>
<g>
</g>
<g>
</g>
<g>
</g>
<g>
</g>
<g>
</g>
<g>
</g>
<g>
</g>
</svg>
